<svg width="200" height="200" viewBox="0 0 200 200" fill="none" xmlns="http://www.w3.org/2000/svg"><rect width="200" height="200" rx="40" fill="#E60012"/><path d="M100 40C66.8629 40 40 66.8629 40 100C40 133.137 66.8629 160 100 160C133.137 160 160 133.137 160 100C160 66.8629 133.137 40 100 40ZM115 130H85V115H115V130ZM120 100C120 101.657 118.657 103 117 103H83C81.3431 103 80 101.657 80 100V70C80 68.3431 81.3431 67 83 67H117C118.657 67 120 68.3431 120 70V100Z" fill="white"/><circle cx="100" cy="100" r="30" stroke="white" stroke-width="4" stroke-dasharray="8 4"/></svg>